<?xml version="1.0" encoding="UTF-8"?>
<svg version="1.1" xmlns="http://www.w3.org/2000/svg" width="500" height="500">
<path d="M0 0 C1.59134766 -0.00386719 1.59134766 -0.00386719 3.21484375 -0.0078125 C6.0625 0.125 6.0625 0.125 9.0625 1.125 C9.0625 1.785 9.0625 2.445 9.0625 3.125 C10.1453125 3.49625 10.1453125 3.49625 11.25 3.875 C17.13964441 6.49261974 19.94933944 10.10398016 23 15.6875 C23.33773437 16.30012695 23.67546875 16.91275391 24.0234375 17.54394531 C24.71137738 18.79456809 25.39484572 20.04766139 26.07373047 21.30322266 C27.00369258 23.01664915 27.95619806 24.71778534 28.91015625 26.41796875 C33.0625 33.84899527 33.0625 33.84899527 33.0625 36.125 C33.7225 36.125 34.3825 36.125 35.0625 36.125 C35.34222656 36.77726562 35.62195313 37.42953125 35.91015625 38.1015625 C38.71967986 44.22650464 41.4530043 48.35391045 47.0625 52.125 C47.63484375 52.5375 48.2071875 52.95 48.796875 53.375 C55.69922249 57.62259845 64.36345507 57.20135191 72.046875 55.44140625 C73.70341772 54.92925029 75.34965653 54.38092865 76.9765625 53.78125 C79.0625 53.125 79.0625 53.125 83.0625 53.125 C87.85316262 69.96826577 83.23704129 88.27736378 75.0625 103.125 C74.39035206 104.45557858 73.72189736 105.78805672 73.0625 107.125 C72.4025 107.125 71.7425 107.125 71.0625 107.125 C70.69125 107.96804688 70.69125 107.96804688 70.3125 108.828125 C68.84975133 111.51592569 67.09445127 113.58905482 65.0625 115.875 C64.36125 116.67421875 63.66 117.4734375 62.9375 118.296875 C61.0625 120.125 61.0625 120.125 59.0625 120.125 C59.0625 120.785 59.0625 121.445 59.0625 122.125 C57.4125 122.455 55.7625 122.785 54.0625 123.125 C52.7425 120.485 51.4225 117.845 50.0625 115.125 C49.4025 115.125 48.7425 115.125 48.0625 115.125 C47.88460937 114.04025391 47.88460937 114.04025391 47.703125 112.93359375 C45.94342595 105.2188156 41.45929392 97.28834219 35.015625 92.65234375 C28.83710348 89.02801495 23.72891119 88.81203107 16.67578125 89.06640625 C2.53515508 89.2957137 2.53515508 89.2957137 -2.3046875 85.046875 C-2.84351563 84.41265625 -3.38234375 83.7784375 -3.9375 83.125 C-3.2775 80.815 -2.6175 78.505 -1.9375 76.125 C-1.35742188 76.02703125 -0.77734375 75.9290625 -0.1796875 75.828125 C0.60148437 75.67859375 1.38265625 75.5290625 2.1875 75.375 C3.33605469 75.16617188 3.33605469 75.16617188 4.5078125 74.953125 C9.4747378 73.34305135 12.8181756 70.99779334 15.36328125 66.4453125 C16.05055068 65.05500455 16.72091248 63.65622366 17.375 62.25 C17.72111328 61.55519531 18.06722656 60.86039063 18.42382812 60.14453125 C21.31319551 54.16303387 22.20671477 48.77361069 22.25 42.125 C22.26417969 41.135 22.27835937 40.145 22.29296875 39.125 C22.04184836 35.85617867 21.21398044 33.18347769 20.0625 30.125 C19.08410156 31.02992188 19.08410156 31.02992188 18.0859375 31.953125 C7.70683945 41.44433561 -2.67035303 47.98638612 -17.01171875 49.27734375 C-18.9375 49.125 -18.9375 49.125 -20.9375 47.125 C-21.5625 45 -21.5625 45 -21.9375 43.125 C-23.4225 43.62 -23.4225 43.62 -24.9375 44.125 C-24.96448189 45.74990954 -24.98388757 47.37494633 -25 49 C-25.01160156 49.90492188 -25.02320313 50.80984375 -25.03515625 51.7421875 C-25.09999257 54.1418585 -25.09999257 54.1418585 -23.9375 56.125 C-22.29386866 56.84659424 -20.62699614 57.51851421 -18.9375 58.125 C-18.36851677 66.89682478 -18.75693343 75.22727873 -22.9375 83.125 C-28.49372501 89.34306946 -34.45746283 94.10154724 -42.9375 95.125 C-44.67 95.434375 -44.67 95.434375 -46.4375 95.75 C-47.2625 95.87375 -48.0875 95.9975 -48.9375 96.125 C-57.43732236 75.90697594 -55.94409605 56.50570339 -47.9296875 36.625 C-45.61519683 31.64592763 -42.38459726 27.37394003 -38.9375 23.125 C-38.38964844 22.44179687 -37.84179688 21.75859375 -37.27734375 21.0546875 C-29.15502266 11.32270369 -19.17064143 6.51022455 -7.9375 1.125 C-5.22094597 -0.23327701 -3.02960594 -0.0073445 0 0 Z M18.0625 87.125 C18.0625 87.455 18.0625 87.785 18.0625 88.125 C19.7125 88.125 21.3625 88.125 23.0625 88.125 C23.0625 87.795 23.0625 87.465 23.0625 87.125 C21.4125 87.125 19.7625 87.125 18.0625 87.125 Z " fill="#611053" transform="translate(229.9375,149.875)"/>
<path d="M0 0 C6.89364544 8.57047811 11.49280015 17.80905207 12.3125 28.875 C0.04342632 34.13317443 -18.33904881 33.95120376 -30.96875 29.9765625 C-44.43124839 24.52192953 -60.17965596 16.01372707 -67.6875 2.875 C-67.3575 1.885 -67.0275 0.895 -66.6875 -0.125 C-64.484375 -0.30859375 -64.484375 -0.30859375 -62.28125 -0.4921875 C-61.32089844 -0.57227051 -60.36054688 -0.65235352 -59.37109375 -0.73486328 C-57.22790035 -0.91335316 -55.08467041 -1.0914048 -52.94140625 -1.26904297 C-47.30376423 -1.73692779 -41.66689762 -2.21176071 -36.03125 -2.703125 C-34.96712891 -2.79480957 -33.90300781 -2.88649414 -32.80664062 -2.98095703 C-30.77385203 -3.15629619 -28.74128494 -3.33422865 -26.70898438 -3.51513672 C-6.62108394 -5.23527568 -6.62108394 -5.23527568 0 0 Z " fill="#E6197A" transform="translate(254.6875,254.125)"/>
<path d="M0 0 C13.53175443 1.30113023 26.1470794 9.00943931 36 18 C36.93005859 18.79277344 36.93005859 18.79277344 37.87890625 19.6015625 C43.42872889 24.64234101 50.63474108 33.24522598 51.22265625 40.8984375 C51.14917969 41.59195313 51.07570313 42.28546875 51 43 C44.41769499 46.02956367 37.16262931 46.20098269 30.2109375 44.1953125 C16.88337504 38.21235102 9.89472642 23.80749074 3.359375 11.5078125 C2.01965055 8.93976203 2.01965055 8.93976203 0.265625 6.4296875 C-1 4 -1 4 -0.6875 1.6875 C-0.460625 1.130625 -0.23375 0.57375 0 0 Z " fill="#F98AB9" transform="translate(257,149)"/>
<path d="M0 0 C0.99 0 1.98 0 3 0 C3.84681133 5.08086796 4.09038099 9.84828377 4 15 C6.87420123 12.28395285 6.87420123 12.28395285 9 9 C8.01 9.33 7.02 9.66 6 10 C5.4375 8.0625 5.4375 8.0625 5 6 C6 5 6 5 8.06640625 4.90234375 C9.30197266 4.91974609 9.30197266 4.91974609 10.5625 4.9375 C11.38878906 4.94652344 12.21507812 4.95554687 13.06640625 4.96484375 C13.70449219 4.97644531 14.34257812 4.98804688 15 5 C15 9.26826873 14.62386487 9.93882432 12 13 C13.65 12.34 15.3 11.68 17 11 C16.979375 10.195625 16.95875 9.39125 16.9375 8.5625 C17 6 17 6 18 5 C20.9375 4.8125 20.9375 4.8125 24 5 C27.35450793 8.35450793 27 13.43260973 27 18 C23 18 19 18 15 18 C13.58463402 18.02335291 12.16926967 18.04680494 10.75390625 18.0703125 C9.02344199 18.08896262 7.29297294 18.1071732 5.5625 18.125 C4.69044922 18.14175781 3.81839844 18.15851563 2.91992188 18.17578125 C1.66211914 18.18544922 1.66211914 18.18544922 0.37890625 18.1953125 C-0.77242798 18.21102295 -0.77242798 18.21102295 -1.94702148 18.22705078 C-4 18 -4 18 -7 16 C-7.1875 12.375 -7.1875 12.375 -7 9 C-7.66 9.33 -8.32 9.66 -9 10 C-9 12.64 -9 15.28 -9 18 C-14.28 18 -19.56 18 -25 18 C-25.66 16.35 -26.32 14.7 -27 13 C-26.34 12.01 -25.68 11.02 -25 10 C-25.33 9.67 -25.66 9.34 -26 9 C-26.66 10.98 -27.32 12.96 -28 15 C-27.34 15.66 -26.68 16.32 -26 17 C-26.1875 19.5 -26.1875 19.5 -27 22 C-30 24 -30 24 -32.5 23.75 C-35 23 -35 23 -38 21 C-37.773125 19.741875 -37.54625 18.48375 -37.3125 17.1875 C-36.81226346 13.87705704 -36.81226346 13.87705704 -38.375 11 C-39.82393602 9.91265043 -39.82393602 9.91265043 -41 10 C-41 12.64 -41 15.28 -41 18 C-42.98 17.67 -44.96 17.34 -47 17 C-47 13.04 -47 9.08 -47 5 C-39.66666667 5 -32.33333333 5 -25 5 C-23.2675 4.9071875 -23.2675 4.9071875 -21.5 4.8125 C-20.345 4.874375 -19.19 4.93625 -18 5 C-15.5705484 8.6441774 -15.83820425 10.71241272 -16 15 C-15.34 15 -14.68 15 -14 15 C-14.33 11.7 -14.66 8.4 -15 5 C-7.48046875 4.609375 -7.48046875 4.609375 -5 5 C-2.45492876 7.54507124 -2.02315801 8.59859456 -1.8125 12.25 C-1.9053125 13.61125 -1.9053125 13.61125 -2 15 C-1.34 15 -0.68 15 0 15 C-0.08378906 14.08476562 -0.16757812 13.16953125 -0.25390625 12.2265625 C-0.40666016 10.44378906 -0.40666016 10.44378906 -0.5625 8.625 C-0.71912109 6.84996094 -0.71912109 6.84996094 -0.87890625 5.0390625 C-1 2 -1 2 0 0 Z M-34 8 C-33.67 9.32 -33.34 10.64 -33 12 C-32.34 11.67 -31.68 11.34 -31 11 C-31 10.01 -31 9.02 -31 8 C-31.99 8 -32.98 8 -34 8 Z M-23 12 C-23 12.66 -23 13.32 -23 14 C-22.01 14 -21.02 14 -20 14 C-20.33 13.34 -20.66 12.68 -21 12 C-21.66 12 -22.32 12 -23 12 Z M-34 18 C-34 18.66 -34 19.32 -34 20 C-32.68 19.67 -31.36 19.34 -30 19 C-31.32 18.67 -32.64 18.34 -34 18 Z " fill="#916B8C" transform="translate(335,293)"/>
<path d="M0 0 C7.33333333 0 14.66666667 0 22 0 C23.7634375 -0.0309375 23.7634375 -0.0309375 25.5625 -0.0625 C29 0 29 0 30 1 C29.94921875 2.99609375 29.94921875 2.99609375 29.6875 5.4375 C29.60886719 6.24058594 29.53023438 7.04367187 29.44921875 7.87109375 C29 10 29 10 27 12 C24.375 12.125 24.375 12.125 22 12 C21.34 10.68 20.68 9.36 20 8 C20.66 7.01 21.32 6.02 22 5 C21.67 4.67 21.34 4.34 21 4 C20.34 5.98 19.68 7.96 19 10 C19.66 10.66 20.32 11.32 21 12 C20.8125 14.5 20.8125 14.5 20 17 C17 19 17 19 14.5 18.75 C12 18 12 18 9 16 C9.226875 14.741875 9.45375 13.48375 9.6875 12.1875 C10.18773654 8.87705704 10.18773654 8.87705704 8.625 6 C7.17606398 4.91265043 7.17606398 4.91265043 6 5 C6 7.64 6 10.28 6 13 C3.03 12.505 3.03 12.505 0 12 C0 8.04 0 4.08 0 0 Z M13 3 C13.33 4.32 13.66 5.64 14 7 C14.66 6.67 15.32 6.34 16 6 C16 5.01 16 4.02 16 3 C15.01 3 14.02 3 13 3 Z M24 7 C24 7.66 24 8.32 24 9 C24.99 9 25.98 9 27 9 C26.67 8.34 26.34 7.68 26 7 C25.34 7 24.68 7 24 7 Z M13 13 C13 13.66 13 14.32 13 15 C14.32 14.67 15.64 14.34 17 14 C15.68 13.67 14.36 13.34 13 13 Z " fill="#6A3260" transform="translate(288,298)"/>
<path d="M0 0 C2.31 0 4.62 0 7 0 C7.12117187 0.63808594 7.24234375 1.27617187 7.3671875 1.93359375 C7.53476563 2.75988281 7.70234375 3.58617187 7.875 4.4375 C8.11863281 5.67306641 8.11863281 5.67306641 8.3671875 6.93359375 C8.57601562 7.61550781 8.78484375 8.29742187 9 9 C9.66 9.33 10.32 9.66 11 10 C10.67 6.7 10.34 3.4 10 0 C13.66666667 0 17.33333333 0 21 0 C22.485 -0.061875 22.485 -0.061875 24 -0.125 C27 0 27 0 29 2 C29.4140625 4.6015625 29.4140625 4.6015625 29.625 7.625 C29.69976562 8.62789063 29.77453125 9.63078125 29.8515625 10.6640625 C29.92503906 11.82035156 29.92503906 11.82035156 30 13 C28.56344146 13.08131463 27.1255517 13.13933559 25.6875 13.1875 C24.88699219 13.22230469 24.08648437 13.25710938 23.26171875 13.29296875 C20.52148416 12.93801608 19.70828921 12.10633718 18 10 C18.66 8.35 19.32 6.7 20 5 C17.525 4.505 17.525 4.505 15 4 C15.33 6.97 15.66 9.94 16 13 C10.72 13 5.44 13 0 13 C-2.04228456 6.87314631 -2.04973834 5.6937176 0 0 Z M2 7 C2 7.66 2 8.32 2 9 C2.99 8.67 3.98 8.34 5 8 C4.01 7.67 3.02 7.34 2 7 Z M23 7 C22.67 7.66 22.34 8.32 22 9 C22.99 8.67 23.98 8.34 25 8 C24.34 7.67 23.68 7.34 23 7 Z " fill="#81507B" transform="translate(128,298)"/>
<path d="M0 0 C1.23556641 0.01740234 1.23556641 0.01740234 2.49609375 0.03515625 C3.32238281 0.04417969 4.14867187 0.05320312 5 0.0625 C5.63808594 0.07410156 6.27617187 0.08570313 6.93359375 0.09765625 C6.93359375 4.36592498 6.55745862 5.03648057 3.93359375 8.09765625 C5.58359375 7.43765625 7.23359375 6.77765625 8.93359375 6.09765625 C8.91296875 5.29328125 8.89234375 4.48890625 8.87109375 3.66015625 C8.93359375 1.09765625 8.93359375 1.09765625 9.93359375 0.09765625 C12.87109375 -0.08984375 12.87109375 -0.08984375 15.93359375 0.09765625 C19.28810168 3.45216418 18.93359375 8.53026598 18.93359375 13.09765625 C12.60026042 13.09765625 6.26692708 13.09765625 -0.06640625 13.09765625 C-0.87608063 10.18282847 -1.28486618 8.63652408 -0.12890625 5.78515625 C0.22171875 5.22828125 0.57234375 4.67140625 0.93359375 4.09765625 C-0.05640625 4.42765625 -1.04640625 4.75765625 -2.06640625 5.09765625 C-2.62890625 3.16015625 -2.62890625 3.16015625 -3.06640625 1.09765625 C-2.06640625 0.09765625 -2.06640625 0.09765625 0 0 Z " fill="#83597F" transform="translate(343.06640625,297.90234375)"/>
<path d="M0 0 C1.98 0 3.96 0 6 0 C7.30048841 2.60097682 7.56471422 5.13955062 8 8 C10.1519437 4.77208445 10.20086443 3.71599191 10 0 C11.98 0 13.96 0 16 0 C16.33 0.66 16.66 1.32 17 2 C16.34 2 15.68 2 15 2 C15.99 4.31 16.98 6.62 18 9 C19.44524884 4.57394994 19.44524884 4.57394994 20 0 C21.98 0 23.96 0 26 0 C26 3.62335132 25.14133879 4.19939462 23 7 C22.21766767 8.72688742 21.48837687 10.47873647 20.8125 12.25 C20.46832031 13.14203125 20.12414062 14.0340625 19.76953125 14.953125 C19.38861328 15.96632813 19.38861328 15.96632813 19 17 C18.01 16.67 17.02 16.34 16 16 C14.8125 12.4375 14.8125 12.4375 14 9 C13.34 9 12.68 9 12 9 C11.731875 10.134375 11.46375 11.26875 11.1875 12.4375 C10.795625 13.613125 10.40375 14.78875 10 16 C9.01 16.33 8.02 16.66 7 17 C6.01934513 14.72979898 5.0404231 12.45887746 4.0625 10.1875 C3.78470703 9.54490234 3.50691406 8.90230469 3.22070312 8.24023438 C2.0481189 5.51362285 0.93910451 2.81731354 0 0 Z " fill="#683960" transform="translate(180,294)"/>
<path d="M0 0 C-3.55786755 3.43835262 -7.10229508 3.50322185 -11.8125 3.625 C-18.0343608 3.85868491 -24.02505081 4.4986863 -30.17578125 5.53515625 C-36.85661328 6.65833474 -43.22721744 7.27519207 -50 7 C-50.43809013 11.0364404 -50.43809013 11.0364404 -47.875 13.4375 C-45.84127813 15.25016515 -43.80335986 16.97872957 -41.6875 18.6875 C-40.800625 19.450625 -39.91375 20.21375 -39 21 C-39 21.66 -39 22.32 -39 23 C-37.02 23.66 -35.04 24.32 -33 25 C-33 25.66 -33 26.32 -33 27 C-31.68 27 -30.36 27 -29 27 C-29 27.66 -29 28.32 -29 29 C-39.86651152 25.84520633 -50.977275 16.65180288 -57 7 C-56.67 6.01 -56.34 5.02 -56 4 C-53.796875 3.81640625 -53.796875 3.81640625 -51.59375 3.6328125 C-50.63339844 3.55272949 -49.67304688 3.47264648 -48.68359375 3.39013672 C-46.54040035 3.21164684 -44.39717041 3.0335952 -42.25390625 2.85595703 C-36.61626423 2.38807221 -30.97939762 1.91323929 -25.34375 1.421875 C-24.27962891 1.33019043 -23.21550781 1.23850586 -22.11914062 1.14404297 C-20.08635203 0.96870381 -18.05378494 0.79077135 -16.02148438 0.60986328 C-10.65635714 0.15044422 -5.38476528 -0.08889943 0 0 Z " fill="#D44388" transform="translate(244,250)"/>
<path d="M0 0 C2.79192205 -0.05380578 5.5828141 -0.09357669 8.375 -0.125 C9.1690625 -0.14175781 9.963125 -0.15851563 10.78125 -0.17578125 C12.85492015 -0.19335473 14.92883241 -0.10335168 17 0 C20.48127974 3.48127974 20 8.27495154 20 13 C18.35 12.34 16.7 11.68 15 11 C15.33 8.69 15.66 6.38 16 4 C14.68 4 13.36 4 12 4 C12.66 6.64 13.32 9.28 14 12 C10.86650268 13.04449911 10.01031744 12.93423645 7 12 C7.33 9.36 7.66 6.72 8 4 C7.01 4 6.02 4 5 4 C5.33 6.97 5.66 9.94 6 13 C3.03 12.505 3.03 12.505 0 12 C0 8.04 0 4.08 0 0 Z " fill="#5D2355" transform="translate(219,298)"/>
<path d="M0 0 C4.55859035 16.02733378 0.58269441 34.01073517 -7.046875 48.3046875 C-7.36140625 48.86414063 -7.6759375 49.42359375 -8 50 C-8.99 50 -9.98 50 -11 50 C-11 49.34 -11 48.68 -11 48 C-10.34 48 -9.68 48 -9 48 C-8.855625 47.278125 -8.71125 46.55625 -8.5625 45.8125 C-8.376875 44.884375 -8.19125 43.95625 -8 43 C-7.855625 42.0925 -7.71125 41.185 -7.5625 40.25 C-7.376875 39.5075 -7.19125 38.765 -7 38 C-6.01 37.505 -6.01 37.505 -5 37 C-4.54878143 34.33692569 -4.20409072 31.74463442 -3.9375 29.0625 C-3.11386139 21.22772277 -3.11386139 21.22772277 -2 19 C-1.69367857 17.02876489 -1.45207171 15.04713289 -1.25 13.0625 C-1.07210938 11.47115234 -1.07210938 11.47115234 -0.890625 9.84765625 C-0.76186558 7.02902093 -0.76186558 7.02902093 -2.19140625 5.1015625 C-4.60211463 3.63326927 -5.92853266 3.87266463 -8.6875 4.3125 C-9.49574219 4.43238281 -10.30398438 4.55226562 -11.13671875 4.67578125 C-11.75160156 4.78277344 -12.36648438 4.88976562 -13 5 C-13.33 4.34 -13.66 3.68 -14 3 C-12.4188708 2.49307308 -10.83498617 1.99473557 -9.25 1.5 C-7.92742187 1.08234375 -7.92742187 1.08234375 -6.578125 0.65625 C-4 0 -4 0 0 0 Z " fill="#6D3164" transform="translate(313,203)"/>
<path d="M0 0 C1.625 3.3125 1.625 3.3125 2 7 C0.72829843 10.37000917 -0.46137837 12.46137837 -3 15 C-6.3125 15.5 -6.3125 15.5 -10 15 C-13.73339481 11.74320878 -14.80317954 10.26839855 -15.5625 5.375 C-14.91198795 1.47192769 -14.17468806 0.29283026 -11 -2 C-6.94394388 -4.09796006 -3.68204693 -2.18195374 0 0 Z M-8.6875 1.625 C-11.0997785 2.77750044 -11.0997785 2.77750044 -11.9375 4.875 C-12.0131712 7.44782067 -11.32168051 8.82311446 -10 11 C-7.08365871 11.2502157 -7.08365871 11.2502157 -4 11 C-1.8480563 7.77208445 -1.79913557 6.71599191 -2 3 C-4.60364503 1.26423665 -5.57576527 0.90134076 -8.6875 1.625 Z " fill="#75506F" transform="translate(286,296)"/>
<path d="M0 0 C0.99 0 1.98 0 3 0 C4.15722657 5.95145093 4.54093989 11.96384797 5 18 C1.37 18 -2.26 18 -6 18 C-8.02361593 13.95276814 -8.18527642 12.35399576 -8 8 C-8 7.01 -8 6.02 -8 5 C-7.67 4.01 -7.34 3.02 -7 2 C-6.01 2 -5.02 2 -4 2 C-4 2.99 -4 3.98 -4 5 C-2.68 5 -1.36 5 0 5 C-0.33 4.01 -0.66 3.02 -1 2 C-0.67 1.34 -0.34 0.68 0 0 Z M-4 8 C-4 10.31 -4 12.62 -4 15 C-3.01 15.33 -2.02 15.66 -1 16 C0.41577477 14.81575674 0.41577477 14.81575674 0.0625 11.4375 C0.041875 10.303125 0.02125 9.16875 0 8 C-1.32 8 -2.64 8 -4 8 Z " fill="#5F2956" transform="translate(371,293)"/>
<path d="M0 0 C1.921875 0.65625 1.921875 0.65625 4 2 C6.62714904 9.83187826 7.27425737 19.99461407 5 28 C4.34 28 3.68 28 3 28 C2.91363281 28.73605469 2.82726562 29.47210938 2.73828125 30.23046875 C1.83758162 36.48578633 1.07221711 39.87145119 -4 44 C-5.72825404 45.95367848 -7.3529135 47.97643658 -9 50 C-10.65 49.67 -12.3 49.34 -14 49 C-13.2575 48.4225 -12.515 47.845 -11.75 47.25 C-6.98339695 43.35005205 -4.01265205 39.66648852 -1.3125 34.125 C-1.00505859 33.52558594 -0.69761719 32.92617187 -0.38085938 32.30859375 C2.47324595 26.55042064 3.14611899 21.35612299 3.1875 15 C3.20876953 13.515 3.20876953 13.515 3.23046875 12 C3.07783921 8.42474356 3.07783921 8.42474356 1 3 C-2.3 5.97 -5.6 8.94 -9 12 C-9.66 11.34 -10.32 10.68 -11 10 C-7.25 7 -7.25 7 -5 7 C-5 6.01 -5 5.02 -5 4 C-4.34 4 -3.68 4 -3 4 C-3 3.34 -3 2.68 -3 2 C-2.01 1.34 -1.02 0.68 0 0 Z " fill="#602755" transform="translate(249,177)"/>
<path d="M0 0 C3.63 0 7.26 0 11 0 C11.33 1.32 11.66 2.64 12 4 C9.50907189 5.24546405 8.58919267 4.7767578 6 4 C5.67 4.66 5.34 5.32 5 6 C6.32 5.67 7.64 5.34 9 5 C9.33 6.65 9.66 8.3 10 10 C9.01 10.495 9.01 10.495 8 11 C7.01 10.67 6.02 10.34 5 10 C5.66 11.98 6.32 13.96 7 16 C6.67 16.33 6.34 16.66 6 17 C4.02 17 2.04 17 0 17 C0 11.39 0 5.78 0 0 Z " fill="#A583A2" transform="translate(115,294)"/>
<path d="M0 0 C3 0.25 3 0.25 5 2.25 C5.4140625 4.8515625 5.4140625 4.8515625 5.625 7.875 C5.69976562 8.87789063 5.77453125 9.88078125 5.8515625 10.9140625 C5.92503906 12.07035156 5.92503906 12.07035156 6 13.25 C4.54207116 13.30399736 3.08357288 13.34279177 1.625 13.375 C0.81289062 13.39820313 0.00078125 13.42140625 -0.8359375 13.4453125 C-3 13.25 -3 13.25 -5 11.25 C-5.265625 9.15625 -5.265625 9.15625 -5.25 6.75 C-5.25515625 5.9559375 -5.2603125 5.161875 -5.265625 4.34375 C-4.80957894 0.74903399 -3.45860435 0.28821703 0 0 Z " fill="#795374" transform="translate(169,297.75)"/>
<path d="M0 0 C2.66266871 2.23320602 2.95347082 3.6200117 3.375 7.0625 C3 10 3 10 1.875 11.875 C-0.92446741 13.55468045 -2.79804064 13.45742277 -6 13 C-8.375 11.375 -8.375 11.375 -10 9 C-10.45319325 5.82764724 -10.52990283 3.93512264 -8.9375 1.125 C-5.85928089 -0.66235303 -3.47093932 -0.43386742 0 0 Z M-3 3 C-3.99 3.33 -4.98 3.66 -6 4 C-6 5.65 -6 7.3 -6 9 C-4.05396726 9.59070014 -4.05396726 9.59070014 -2 10 C-0.70366379 8.93354885 -0.70366379 8.93354885 -0.9375 6.4375 C-0.958125 5.633125 -0.97875 4.82875 -1 4 C-1.66 3.67 -2.32 3.34 -3 3 Z " fill="#805379" transform="translate(386,298)"/>
<path d="M0 0 C1.79093191 -0.08086147 3.58289628 -0.13912702 5.375 -0.1875 C6.87160156 -0.23970703 6.87160156 -0.23970703 8.3984375 -0.29296875 C9.25695312 -0.19628906 10.11546875 -0.09960938 11 0 C13.02350324 3.03525486 13.32124018 4.19426202 13.625 7.6875 C13.69976562 8.49574219 13.77453125 9.30398438 13.8515625 10.13671875 C13.92503906 11.05904297 13.92503906 11.05904297 14 12 C12.35 11.67 10.7 11.34 9 11 C9 8.36 9 5.72 9 3 C7.68 3.33 6.36 3.66 5 4 C5.66 6.64 6.32 9.28 7 12 C3.86650268 13.04449911 3.01031744 12.93423645 0 12 C0.08378906 11.38511719 0.16757812 10.77023437 0.25390625 10.13671875 C0.35574219 9.32847656 0.45757812 8.52023437 0.5625 7.6875 C0.66691406 6.88699219 0.77132813 6.08648437 0.87890625 5.26171875 C1.14755178 2.83182884 1.14755178 2.83182884 0 0 Z " fill="#693962" transform="translate(389,298)"/>
<path d="M0 0 C1.9375 2.375 1.9375 2.375 3 5 C2.67 5.66 2.34 6.32 2 7 C-0.31 7 -2.62 7 -5 7 C-5 7.66 -5 8.32 -5 9 C-3.02 9 -1.04 9 1 9 C1 10.32 1 11.64 1 13 C-2.53677664 13.32152515 -4.3962104 13.4131192 -7.375 11.375 C-9.46379841 8.32214079 -9.54068562 6.63031776 -9 3 C-6.80512228 -0.65812953 -4.00071944 -0.66678657 0 0 Z " fill="#6C3968" transform="translate(249,298)"/>
<path d="M0 0 C1.62418745 -0.08090971 3.24951745 -0.13914995 4.875 -0.1875 C5.77992188 -0.22230469 6.68484375 -0.25710938 7.6171875 -0.29296875 C8.79667969 -0.14794922 8.79667969 -0.14794922 10 0 C12.10827055 3.16240582 12.33817465 4.50657469 12.625 8.1875 C12.69976562 9.08855469 12.77453125 9.98960937 12.8515625 10.91796875 C12.90054687 11.60503906 12.94953125 12.29210937 13 13 C10.525 12.01 10.525 12.01 8 11 C8 8.69 8 6.38 8 4 C6.68 4 5.36 4 4 4 C4.66 6.64 5.32 9.28 6 12 C3 13 3 13 0.8125 12.0625 C0.214375 11.711875 -0.38375 11.36125 -1 11 C-0.67 10.34 -0.34 9.68 0 9 C0.06950541 7.45976004 0.08452357 5.91665012 0.0625 4.375 C0.05347656 3.55773437 0.04445312 2.74046875 0.03515625 1.8984375 C0.02355469 1.27195312 0.01195312 0.64546875 0 0 Z " fill="#81557D" transform="translate(252,298)"/>
<path d="M0 0 C1.485 0.99 1.485 0.99 3 2 C3.27709961 4.0402832 3.27709961 4.0402832 3.15234375 6.55078125 C3.12188965 7.47133301 3.09143555 8.39188477 3.06005859 9.34033203 C3.01961426 10.32114746 2.97916992 11.30196289 2.9375 12.3125 C2.69670845 22.99567613 4.00269204 31.41057121 9 41 C7.68 41 6.36 41 5 41 C-0.74551528 27.33348308 -1.39517752 14.51738772 0 0 Z " fill="#753F6C" transform="translate(176,205)"/>
<path d="M0 0 C1.69921875 1.234375 1.69921875 1.234375 3 3 C3.14453125 5.2265625 3.14453125 5.2265625 2.8125 7.625 C2.71582031 8.42164063 2.61914062 9.21828125 2.51953125 10.0390625 C2.34808594 10.68617188 2.17664063 11.33328125 2 12 C-0.79870027 13.39935013 -2.90498792 13.25265405 -6 13 C-7.875 11.9375 -7.875 11.9375 -9 10 C-9.63316583 4.09045226 -9.63316583 4.09045226 -7.875 1.0625 C-5.11019567 -0.50422245 -3.11811483 -0.38976435 0 0 Z M-5 3 C-5.33 4.65 -5.66 6.3 -6 8 C-4.02 8.99 -4.02 8.99 -2 10 C-1.34 9.34 -0.68 8.68 0 8 C-0.32041397 5.39719432 -0.32041397 5.39719432 -1 3 C-2.32 3 -3.64 3 -5 3 Z " fill="#633459" transform="translate(215,298)"/>
<path d="M0 0 C5.18004391 6.4528547 7.39567294 13.84158474 8 22 C3.01757959 24.13532303 -1.44256319 25.13262862 -6.86328125 25.09765625 C-8.19262695 25.09282227 -8.19262695 25.09282227 -9.54882812 25.08789062 C-10.46083984 25.07951172 -11.37285156 25.07113281 -12.3125 25.0625 C-13.24384766 25.05798828 -14.17519531 25.05347656 -15.13476562 25.04882812 C-17.42324373 25.03709234 -19.71158808 25.02067363 -22 25 C-22 24.67 -22 24.34 -22 24 C-15.73 24 -9.46 24 -3 24 C-3 23.34 -3 22.68 -3 22 C0.96 21.505 0.96 21.505 5 21 C5 19.68 5 18.36 5 17 C4.01 16.67 3.02 16.34 2 16 C1.93941406 15.43152344 1.87882812 14.86304688 1.81640625 14.27734375 C1.29823427 9.50218963 0.70756141 4.7507695 0 0 Z " fill="#CB548A" transform="translate(259,261)"/>
<path d="M0 0 C1.23556641 0.01740234 1.23556641 0.01740234 2.49609375 0.03515625 C3.32238281 0.04417969 4.14867187 0.05320312 5 0.0625 C5.63808594 0.07410156 6.27617187 0.08570313 6.93359375 0.09765625 C6.93359375 4.36592498 6.55745862 5.03648057 3.93359375 8.09765625 C7.47878259 6.7000572 7.47878259 6.7000572 10.93359375 5.09765625 C10.30859375 7.47265625 10.30859375 7.47265625 8.93359375 10.09765625 C5.31937018 11.74762788 2.93524569 12.09765625 -1.06640625 12.09765625 C-0.19140625 6.34765625 -0.19140625 6.34765625 0.93359375 4.09765625 C-0.05640625 4.42765625 -1.04640625 4.75765625 -2.06640625 5.09765625 C-2.62890625 3.16015625 -2.62890625 3.16015625 -3.06640625 1.09765625 C-2.06640625 0.09765625 -2.06640625 0.09765625 0 0 Z " fill="#6D3463" transform="translate(343.06640625,297.90234375)"/>
<path d="M0 0 C0.06058594 0.69867188 0.12117187 1.39734375 0.18359375 2.1171875 C0.26738281 3.02726563 0.35117188 3.93734375 0.4375 4.875 C0.51871094 5.77992188 0.59992188 6.68484375 0.68359375 7.6171875 C0.86989285 10.01110861 0.86989285 10.01110861 2 12 C3.64363134 12.72159424 5.31050386 13.39351421 7 14 C7.36801906 21.93285519 6.77476512 28.5345605 4 36 C2.53199312 34.03561669 1.96782556 32.53263574 2.11621094 30.07617188 C2.47750479 27.78558931 2.90792173 25.52135643 3.375 23.25 C3.52710938 22.45722656 3.67921875 21.66445312 3.8359375 20.84765625 C4.21213697 18.8961215 4.60450316 16.94771562 5 15 C3.68 15 2.36 15 1 15 C1 14.34 1 13.68 1 13 C0.01 12.67 -0.98 12.34 -2 12 C-2.66 8.7 -3.32 5.4 -4 2 C-1 0 -1 0 0 0 Z " fill="#6D3B68" transform="translate(204,194)"/>
<path d="M0 0 C1.051875 0.4640625 1.051875 0.4640625 2.125 0.9375 C5.08936657 2.03302678 7.87698108 2.56422992 11 3 C11 2.01 11 1.02 11 0 C11.66 0.33 12.32 0.66 13 1 C12.67 1.66 12.34 2.32 12 3 C12.66 3 13.32 3 14 3 C15.38232443 4.62626404 16.71937515 6.2925002 18 8 C17.67 8.66 17.34 9.32 17 10 C15.96875 9.34 14.9375 8.68 13.875 8 C8.79198111 5.43145322 4.08827497 5.75114766 -1.5 5.92578125 C-6.06051368 6.02248857 -10.48305988 5.58283098 -15 5 C-11.09029928 2.39353285 -8.00049703 2.58532793 -3.3984375 2.34375 C-2.60695312 2.2303125 -1.81546875 2.116875 -1 2 C-0.67 1.34 -0.34 0.68 0 0 Z M0 4 C0 4.33 0 4.66 0 5 C1.65 5 3.3 5 5 5 C5 4.67 5 4.34 5 4 C3.35 4 1.7 4 0 4 Z " fill="#661754" transform="translate(248,233)"/>
<path d="M0 0 C0.66 0 1.32 0 2 0 C3.67280056 7.52760254 4.29384788 15.90455693 1 23 C-0.32 23 -1.64 23 -3 23 C-3 22.34 -3 21.68 -3 21 C-2.34 21 -1.68 21 -1 21 C-1.08378906 19.89140625 -1.16757813 18.7828125 -1.25390625 17.640625 C-1.35710305 16.17710672 -1.45994926 14.71356369 -1.5625 13.25 C-1.61857422 12.52039063 -1.67464844 11.79078125 -1.73242188 11.0390625 C-1.97627449 7.46255748 -2.07339532 4.42567105 -1 1 C-0.67 0.67 -0.34 0.34 0 0 Z " fill="#886484" transform="translate(160,293)"/>
<path d="M0 0 C8.75 -0.125 8.75 -0.125 11 1 C11 1.66 11 2.32 11 3 C11.66 3 12.32 3 13 3 C12.67 3.66 12.34 4.32 12 5 C9 6 9 6 6 5 C6 7.64 6 10.28 6 13 C3.03 12.505 3.03 12.505 0 12 C0 8.04 0 4.08 0 0 Z " fill="#957190" transform="translate(288,298)"/>
<path d="M0 0 C-6.18482352 7.00647882 -16.03504795 9.33867044 -25.07421875 10.15234375 C-27 10 -27 10 -29 8 C-28.625 5.375 -28.625 5.375 -28 3 C-27.34 3.33 -26.68 3.66 -26 4 C-26 4.99 -26 5.98 -26 7 C-18.71967741 7.54602419 -13.02586545 4.84985848 -7 1 C-3.38297872 -1.12765957 -3.38297872 -1.12765957 0 0 Z " fill="#712A5E" transform="translate(238,189)"/>
<path d="M0 0 C0.99 0.66 1.98 1.32 3 2 C2.34 2 1.68 2 1 2 C0.7525 2.56203125 0.505 3.1240625 0.25 3.703125 C-1.21274867 6.39092569 -2.96804873 8.46405482 -5 10.75 C-6.051875 11.94882812 -6.051875 11.94882812 -7.125 13.171875 C-9 15 -9 15 -11 15 C-11 15.66 -11 16.32 -11 17 C-12.65 17.33 -14.3 17.66 -16 18 C-17.5625 15.6875 -17.5625 15.6875 -19 13 C-18.67 12.01 -18.34 11.02 -18 10 C-16.68 11.32 -15.36 12.64 -14 14 C-8.81580806 9.67106815 -4.27293882 5.23435005 0 0 Z " fill="#703767" transform="translate(300,255)"/>
<path d="M0 0 C1.99954746 -0.04254356 4.00041636 -0.04080783 6 0 C6.33 0.33 6.66 0.66 7 1 C6.94921875 2.99609375 6.94921875 2.99609375 6.6875 5.4375 C6.60886719 6.24058594 6.53023438 7.04367187 6.44921875 7.87109375 C6 10 6 10 4 12 C1.375 12.125 1.375 12.125 -1 12 C-1.66 10.68 -2.32 9.36 -3 8 C-1 5 -1 5 2 4 C1.34 3.34 0.68 2.68 0 2 C0 1.34 0 0.68 0 0 Z M1 7 C1 7.66 1 8.32 1 9 C1.99 9 2.98 9 4 9 C3.67 8.34 3.34 7.68 3 7 C2.34 7 1.68 7 1 7 Z " fill="#662E63" transform="translate(311,298)"/>
<path d="M0 0 C0.92553743 3.13850064 1.11664647 5.93680778 1.09765625 9.203125 C1.09443359 10.1828125 1.09121094 11.1625 1.08789062 12.171875 C1.07951172 13.18765625 1.07113281 14.2034375 1.0625 15.25 C1.05798828 16.28125 1.05347656 17.3125 1.04882812 18.375 C1.03706088 20.91672573 1.02062011 23.45833319 1 26 C-1.53634998 21.46720072 -1.09398098 17.51692764 -0.83398438 12.40039062 C-0.75149949 9.53617414 -0.69408965 7.50129825 -2.2109375 5.015625 C-4.60769613 3.65501967 -5.98959027 3.88239845 -8.6875 4.3125 C-9.49574219 4.43238281 -10.30398438 4.55226562 -11.13671875 4.67578125 C-11.75160156 4.78277344 -12.36648438 4.88976562 -13 5 C-13.33 4.34 -13.66 3.68 -14 3 C-12.4188708 2.49307308 -10.83498617 1.99473557 -9.25 1.5 C-7.92742187 1.08234375 -7.92742187 1.08234375 -6.578125 0.65625 C-4 0 -4 0 0 0 Z " fill="#683160" transform="translate(313,203)"/>
<path d="M0 0 C2.66648371 3.33105349 4.6669681 6.87197848 6.6875 10.625 C7.62142578 12.34589844 7.62142578 12.34589844 8.57421875 14.1015625 C10 17 10 17 10 19 C10.66 19 11.32 19 12 19 C12.33 20.65 12.66 22.3 13 24 C11.125 23.75 11.125 23.75 9 23 C6.97244814 20.06004981 7 18.72295997 7 15 C6.236875 14.855625 5.47375 14.71125 4.6875 14.5625 C1.03229339 12.43737988 0.62414275 10.19598612 -0.6171875 6.2890625 C-1.02664478 3.84067507 -0.77808726 2.33426178 0 0 Z " fill="#703767" transform="translate(253,167)"/>
<path d="M0 0 C0.33 0 0.66 0 1 0 C1.66 3.3 2.32 6.6 3 10 C1.576875 10.061875 0.15375 10.12375 -1.3125 10.1875 C-2.51326172 10.23970703 -2.51326172 10.23970703 -3.73828125 10.29296875 C-6.47851584 9.93801608 -7.29171079 9.10633718 -9 7 C-8.34 5.35 -7.68 3.7 -7 2 C-5.35 2 -3.7 2 -2 2 C-2 2.66 -2 3.32 -2 4 C-0.7018576 2.8509288 -0.7018576 2.8509288 0 0 Z " fill="#703E69" transform="translate(155,301)"/>
<path d="M0 0 C1.98 0 3.96 0 6 0 C6 3.62335132 5.14133879 4.19939462 3 7 C2.21766767 8.72688742 1.48837687 10.47873647 0.8125 12.25 C0.46832031 13.14203125 0.12414062 14.0340625 -0.23046875 14.953125 C-0.48441406 15.62859375 -0.73835937 16.3040625 -1 17 C-1.99 16.67 -2.98 16.34 -4 16 C-4.33 15.01 -4.66 14.02 -5 13 C-4.01 13 -3.02 13 -2 13 C-1.67 12.34 -1.34 11.68 -1 11 C-1.66 10.67 -2.32 10.34 -3 10 C-2.505 9.0925 -2.01 8.185 -1.5 7.25 C0.27937212 3.99126962 0.27937212 3.99126962 0 0 Z " fill="#835E7F" transform="translate(200,294)"/>
<path d="M0 0 C-3.55786755 3.43835262 -7.10229508 3.50322185 -11.8125 3.625 C-13.19411825 3.67689177 -14.57563519 3.73155879 -15.95703125 3.7890625 C-16.96950928 3.83015137 -16.96950928 3.83015137 -18.00244141 3.87207031 C-21.02636666 4.06573162 -24.00373995 4.55905461 -27 5 C-28.32 5 -29.64 5 -31 5 C-31 4.34 -31 3.68 -31 3 C-20.66393324 1.14203338 -10.51432958 -0.19838358 0 0 Z " fill="#D13179" transform="translate(244,250)"/>
<path d="M0 0 C0.33 0 0.66 0 1 0 C1.33 3.96 1.66 7.92 2 12 C-1.63 12 -5.26 12 -9 12 C-9.66 10.68 -10.32 9.36 -11 8 C-10.34 8 -9.68 8 -9 8 C-8.67 5.69 -8.34 3.38 -8 1 C-6.35 1 -4.7 1 -3 1 C-3.99 1.66 -4.98 2.32 -6 3 C-6.25030977 5.58380177 -6.25030977 5.58380177 -6 8 C-4.68 8.33 -3.36 8.66 -2 9 C-1.34 6.03 -0.68 3.06 0 0 Z " fill="#83657F" transform="translate(374,299)"/>
<path d="M0 0 C1.65 0 3.3 0 5 0 C5 0.66 5 1.32 5 2 C5.66 2.66 6.32 3.32 7 4 C6.34 4 5.68 4 5 4 C5.33 6.97 5.66 9.94 6 13 C3.03 12.505 3.03 12.505 0 12 C0 8.04 0 4.08 0 0 Z " fill="#926F8E" transform="translate(219,298)"/>
<path d="M0 0 C1.98 0 3.96 0 6 0 C6.33 0.66 6.66 1.32 7 2 C6.34 2 5.68 2 5 2 C5.33 2.7425 5.66 3.485 6 4.25 C7 7 7 7 7 11 C7.66 11 8.32 11 9 11 C8.67 11.99 8.34 12.98 8 14 C7.01 13.67 6.02 13.34 5 13 C4.67 11.35 4.34 9.7 4 8 C3.01 7.67 2.02 7.34 1 7 C0.67 4.69 0.34 2.38 0 0 Z " fill="#683661" transform="translate(190,294)"/>
<path d="M0 0 C3.0625 0.1875 3.0625 0.1875 5.0625 2.1875 C5.1875 5.8125 5.1875 5.8125 5.0625 9.1875 C4.4025 8.1975 3.7425 7.2075 3.0625 6.1875 C2.7325 6.8475 2.4025 7.5075 2.0625 8.1875 C1.4025 7.8575 0.7425 7.5275 0.0625 7.1875 C0.3925 6.5275 0.7225 5.8675 1.0625 5.1875 C-0.855625 5.249375 -0.855625 5.249375 -2.8125 5.3125 C-4.9921875 5.3828125 -4.9921875 5.3828125 -6.9375 5.1875 C-7.5975 4.5275 -8.2575 3.8675 -8.9375 3.1875 C-8.133125 2.878125 -7.32875 2.56875 -6.5 2.25 C-1.26886095 0.08099112 -1.26886095 0.08099112 0 0 Z " fill="#937290" transform="translate(151.9375,297.8125)"/>
<path d="M0 0 C3.875 0.875 3.875 0.875 5 2 C5.63482967 5.73844139 6 9.20180157 6 13 C3.525 12.01 3.525 12.01 1 11 C1.33 8.69 1.66 6.38 2 4 C0.35 3.67 -1.3 3.34 -3 3 C-2.01 2.67 -1.02 2.34 0 2 C0 1.34 0 0.68 0 0 Z " fill="#6C4266" transform="translate(233,298)"/>
<path d="M0 0 C1.8125 0.125 1.8125 0.125 4 1 C5.0358679 2.98166034 6.03112419 4.98473831 7 7 C9.30063274 9.53659507 11.54834582 11.67041452 14.3125 13.6875 C15.1478125 14.3371875 15.1478125 14.3371875 16 15 C16 15.66 16 16.32 16 17 C17.65 17.33 19.3 17.66 21 18 C21 18.66 21 19.32 21 20 C11.68247782 17.90355751 6.34994359 10.57513986 1.25 3.0390625 C0 1 0 1 0 0 Z " fill="#ED9ABC" transform="translate(268,173)"/>
<path d="M0 0 C0.33 0 0.66 0 1 0 C1.33 3.63 1.66 7.26 2 11 C-0.97 11 -3.94 11 -7 11 C-6.34 10.67 -5.68 10.34 -5 10 C-5 8.35 -5 6.7 -5 5 C-4.01 4.67 -3.02 4.34 -2 4 C-1.67 3.01 -1.34 2.02 -1 1 C-0.67 0.67 -0.34 0.34 0 0 Z " fill="#7E577C" transform="translate(173,300)"/>
<path d="M0 0 C1.65 0 3.3 0 5 0 C4.98839844 0.61488281 4.97679687 1.22976563 4.96484375 1.86328125 C4.95582031 2.67152344 4.94679688 3.47976563 4.9375 4.3125 C4.92589844 5.11300781 4.91429687 5.91351563 4.90234375 6.73828125 C4.90342145 9.16861334 4.90342145 9.16861334 6 12 C3 13 3 13 0.8125 12.0625 C0.214375 11.711875 -0.38375 11.36125 -1 11 C-0.67 10.34 -0.34 9.68 0 9 C0.06950541 7.45976004 0.08452357 5.91665012 0.0625 4.375 C0.05347656 3.55773437 0.04445312 2.74046875 0.03515625 1.8984375 C0.02355469 1.27195312 0.01195312 0.64546875 0 0 Z " fill="#774A6F" transform="translate(252,298)"/>
<path d="M0 0 C0.99 0.33 1.98 0.66 3 1 C2.34 1 1.68 1 1 1 C1 1.66 1 2.32 1 3 C5.47883696 2.55296014 5.47883696 2.55296014 9 0 C8.6875 2.375 8.6875 2.375 8 5 C5 7 5 7 2.5 6.75 C0 6 0 6 -3 4 C-2.67 3.01 -2.34 2.02 -2 1 C-1.34 1.33 -0.68 1.66 0 2 C0 1.34 0 0.68 0 0 Z " fill="#703769" transform="translate(300,310)"/>
<path d="M0 0 C2.97 0 5.94 0 9 0 C8.67 0.99 8.34 1.98 8 3 C7.01 3.33 6.02 3.66 5 4 C3.77030122 7.51190809 3.77030122 7.51190809 3 11 C2.34 11 1.68 11 1 11 C0.67 7.37 0.34 3.74 0 0 Z " fill="#5B2152" transform="translate(138,298)"/>
<path d="M0 0 C4.0490648 5.1533552 5.25650324 8.61705829 5.625 15.25 C5.69976562 16.51328125 5.77453125 17.7765625 5.8515625 19.078125 C5.90054687 20.04234375 5.94953125 21.0065625 6 22 C4.68 21.67 3.36 21.34 2 21 C2.99 21 3.98 21 5 21 C5 19.68 5 18.36 5 17 C4.01 16.67 3.02 16.34 2 16 C1.90912109 15.14728516 1.90912109 15.14728516 1.81640625 14.27734375 C1.29823427 9.50218963 0.70756141 4.7507695 0 0 Z " fill="#E02D7F" transform="translate(259,261)"/>
<path d="M0 0 C0.33 0.66 0.66 1.32 1 2 C-1.21928194 4.90802461 -2.92969143 6.95312762 -6 9 C-7.20482939 10.7179646 -7.20482939 10.7179646 -8.1875 12.625 C-8.785625 13.73875 -9.38375 14.8525 -10 16 C-10.99 15.67 -11.98 15.34 -13 15 C-11.50403926 11.60502173 -9.5352395 9.12862797 -7.0625 6.375 C-6.37285156 5.59898437 -5.68320313 4.82296875 -4.97265625 4.0234375 C-3 2 -3 2 0 0 Z " fill="#69305C" transform="translate(201,163)"/>
<path d="M0 0 C0.02578125 0.66386719 0.0515625 1.32773438 0.078125 2.01171875 C0.43351002 7.54441741 0.83118278 10.96566075 5 15 C3.68 15 2.36 15 1 15 C1 14.34 1 13.68 1 13 C0.01 12.67 -0.98 12.34 -2 12 C-2.66 8.7 -3.32 5.4 -4 2 C-1 0 -1 0 0 0 Z " fill="#6D2E63" transform="translate(204,194)"/>
<path d="M0 0 C7.75 0.875 7.75 0.875 10 2 C10 2.66 10 3.32 10 4 C12.97 4 15.94 4 19 4 C19 4.66 19 5.32 19 6 C19.66 6.33 20.32 6.66 21 7 C13.38898472 6.02125692 6.83102288 4.5535119 0 1 C0 0.67 0 0.34 0 0 Z " fill="#D14686" transform="translate(215,279)"/>
<path d="M0 0 C0.33 0 0.66 0 1 0 C1.33 2.31 1.66 4.62 2 7 C3.98 7 5.96 7 8 7 C8 7.99 8 8.98 8 10 C2.72 10 -2.56 10 -8 10 C-8 9.67 -8 9.34 -8 9 C-7.05125 8.814375 -6.1025 8.62875 -5.125 8.4375 C-1.61628301 7.26599195 -1.61628301 7.26599195 -0.625 3.375 C-0.41875 2.26125 -0.2125 1.1475 0 0 Z " fill="#AD8EA7" transform="translate(318,301)"/>
<path d="M0 0 C2.31 0 4.62 0 7 0 C8.60725635 3.21451269 8.05748185 6.43612536 8 10 C6.02 10.99 6.02 10.99 4 12 C3.67 11.01 3.34 10.02 3 9 C3.66 8.67 4.32 8.34 5 8 C5 6.68 5 5.36 5 4 C5 3.34 5 2.68 5 2 C3.68 1.67 2.36 1.34 1 1 C1 1.66 1 2.32 1 3 C0.34 2.67 -0.32 2.34 -1 2 C-0.67 1.34 -0.34 0.68 0 0 Z " fill="#5F2659" transform="translate(128,298)"/>
<path d="M0 0 C1.59134766 -0.02126953 1.59134766 -0.02126953 3.21484375 -0.04296875 C6.0625 0.1875 6.0625 0.1875 9.0625 2.1875 C7.4801994 2.52570166 5.89660625 2.85785939 4.3125 3.1875 C2.98992187 3.4659375 2.98992187 3.4659375 1.640625 3.75 C-0.9375 4.1875 -0.9375 4.1875 -4.9375 4.1875 C-4.9375 3.5275 -4.9375 2.8675 -4.9375 2.1875 C-5.9275 1.8575 -6.9175 1.5275 -7.9375 1.1875 C-5.2264923 -0.16800385 -3.02410831 0.01832793 0 0 Z " fill="#A57597" transform="translate(229.9375,149.8125)"/>
<path d="M0 0 C1 3 1 3 -0.07421875 5.375 C-0.60660156 6.24125 -1.13898438 7.1075 -1.6875 8 C-2.20699219 8.86625 -2.72648438 9.7325 -3.26171875 10.625 C-4.97874518 12.9709597 -6.59055078 14.40419921 -9 16 C-10.32 15.34 -11.64 14.68 -13 14 C-12.48050781 13.74347656 -11.96101562 13.48695313 -11.42578125 13.22265625 C-5.41933541 9.92521741 -2.80159852 6.18237367 0 0 Z " fill="#703B68" transform="translate(248,211)"/>
<path d="M0 0 C0.66 0 1.32 0 2 0 C2.99 2.97 3.98 5.94 5 9 C4 10 4 10 0.9375 10.0625 C-0.031875 10.041875 -1.00125 10.02125 -2 10 C-1.34 6.7 -0.68 3.4 0 0 Z " fill="#7D5479" transform="translate(117,301)"/>
<path d="M0 0 C1.91423658 0.81210037 3.52072017 1.52072017 5 3 C5.23529412 8.52941176 5.23529412 8.52941176 4 11 C3.01 11 2.02 11 1 11 C1.0928125 9.3603125 1.0928125 9.3603125 1.1875 7.6875 C1.35597914 4.07873917 1.35597914 4.07873917 -0.5 2.0625 C-0.995 1.711875 -1.49 1.36125 -2 1 C-1.34 0.67 -0.68 0.34 0 0 Z " fill="#542449" transform="translate(213,298)"/>
<path d="M0 0 C0.66 0.33 1.32 0.66 2 1 C2 2.65 2 4.3 2 6 C1.34 6 0.68 6 0 6 C-0.66 9.3 -1.32 12.6 -2 16 C-2.66 15.34 -3.32 14.68 -4 14 C-3.69041608 8.73707342 -2.20481515 4.69721489 0 0 Z " fill="#6C2F64" transform="translate(182,187)"/>
<path d="M0 0 C3.63 0 7.26 0 11 0 C11.33 1.32 11.66 2.64 12 4 C9.50907189 5.24546405 8.58919267 4.7767578 6 4 C6 3.34 6 2.68 6 2 C4.35 2.33 2.7 2.66 1 3 C0.67 2.01 0.34 1.02 0 0 Z " fill="#7E587B" transform="translate(115,294)"/>
<path d="M0 0 C3.29219428 0.16847091 3.29219428 0.16847091 6 0 C6 0.66 6 1.32 6 2 C-1.07721931 2.12109311 -7.97195301 1.85373239 -15 1 C-9.41422358 -2.72385094 -6.26091429 -1.86729023 0 0 Z " fill="#966D8D" transform="translate(248,237)"/>
<path d="M0 0 C1.09054687 0.36351562 2.18109375 0.72703125 3.3046875 1.1015625 C5.58921557 1.37737113 7.88287133 1.5859411 10.1796875 1.7265625 C11.90832031 1.83871094 11.90832031 1.83871094 13.671875 1.953125 C14.97511719 2.02660156 14.97511719 2.02660156 16.3046875 2.1015625 C15.9746875 2.7615625 15.6446875 3.4215625 15.3046875 4.1015625 C9.09746009 4.29861734 3.23613935 4.13305341 -2.6953125 2.1015625 C-3.3553125 1.4415625 -4.0153125 0.7815625 -4.6953125 0.1015625 C-2.6953125 -0.8984375 -2.6953125 -0.8984375 0 0 Z " fill="#5C2354" transform="translate(281.6953125,204.8984375)"/>
<path d="M0 0 C1.75299712 0.59541454 3.50229748 1.20171914 5.25 1.8125 C6.22453125 2.14894531 7.1990625 2.48539063 8.203125 2.83203125 C10.85948302 3.94132042 12.79689939 5.1693283 15 7 C13.3745692 6.85904936 11.74965949 6.71207913 10.125 6.5625 C9.22007812 6.48128906 8.31515625 6.40007812 7.3828125 6.31640625 C5 6 5 6 3 5 C3 4.34 3 3.68 3 3 C2.01 3.33 1.02 3.66 0 4 C0 2.68 0 1.36 0 0 Z " fill="#F29AC1" transform="translate(263,150)"/>
<path d="M0 0 C0 0.66 0 1.32 0 2 C-1.98 2.99 -1.98 2.99 -4 4 C-3.67 4.99 -3.34 5.98 -3 7 C-3.639375 6.814375 -4.27875 6.62875 -4.9375 6.4375 C-5.9584375 6.2209375 -5.9584375 6.2209375 -7 6 C-7.33 6.33 -7.66 6.66 -8 7 C-10.33297433 7.04092937 -12.66705225 7.04241723 -15 7 C-12 5 -12 5 -8 5 C-7.67 4.34 -7.34 3.68 -7 3 C-3.53846154 0 -3.53846154 0 0 0 Z " fill="#A887A6" transform="translate(358,304)"/>
<path d="M0 0 C0.33 0 0.66 0 1 0 C1.33 2.97 1.66 5.94 2 9 C-2.29 9 -6.58 9 -11 9 C-9.35 7.68 -7.7 6.36 -6 5 C-3.525 5.99 -3.525 5.99 -1 7 C-0.67 4.69 -0.34 2.38 0 0 Z " fill="#A88AA7" transform="translate(142,302)"/>
<path d="M0 0 C2.31 0.33 4.62 0.66 7 1 C7.33 2.65 7.66 4.3 8 6 C5.36 5.01 2.72 4.02 0 3 C0 3.66 0 4.32 0 5 C-0.99 4.67 -1.98 4.34 -3 4 C-2.01 2.68 -1.02 1.36 0 0 Z " fill="#5A1A53" transform="translate(300,307)"/>
<path d="M0 0 C0.66 0 1.32 0 2 0 C2 0.66 2 1.32 2 2 C3.98 2 5.96 2 8 2 C8 3.32 8 4.64 8 6 C2.46153846 6.36923077 2.46153846 6.36923077 0.125 4.5 C-0.24625 4.005 -0.6175 3.51 -1 3 C-0.67 2.01 -0.34 1.02 0 0 Z " fill="#71466B" transform="translate(242,305)"/>
<path d="M0 0 C0.33 1.32 0.66 2.64 1 4 C0.38125 4.28875 -0.2375 4.5775 -0.875 4.875 C-3.13325765 5.93720042 -3.13325765 5.93720042 -5 8 C-5.99 7.67 -6.98 7.34 -8 7 C-6.84826645 4.53199953 -5.95216435 2.95216435 -4 1 C-1.875 0.375 -1.875 0.375 0 0 Z " fill="#855880" transform="translate(279,293)"/>
<path d="M0 0 C2.00720923 0.28674418 4.0085944 0.61866701 6 1 C5.625 2.9375 5.625 2.9375 5 5 C4.01 5.495 4.01 5.495 3 6 C3.33 7.32 3.66 8.64 4 10 C0.77686187 7.19275066 -0.64998321 5.31687378 -1 1 C-0.67 0.67 -0.34 0.34 0 0 Z " fill="#EA92B9" transform="translate(257,149)"/>
<path d="M0 0 C2.875 -0.125 2.875 -0.125 6 0 C8 2 8 2 8.25 5.5 C8 9 8 9 6 11 C5.34 8.36 4.68 5.72 4 3 C2.35 2.67 0.7 2.34 -1 2 C-0.67 1.34 -0.34 0.68 0 0 Z " fill="#592452" transform="translate(353,298)"/>
<path d="M0 0 C2.375 0.1875 2.375 0.1875 5 1 C6.4375 3.3125 6.4375 3.3125 7 6 C6.125 8.3125 6.125 8.3125 5 10 C4.566875 9.030625 4.13375 8.06125 3.6875 7.0625 C2.2985139 3.72268235 2.2985139 3.72268235 -1 3 C-0.67 2.01 -0.34 1.02 0 0 Z " fill="#5A2952" transform="translate(280,294)"/>
<path d="M0 0 C0.66 0.33 1.32 0.66 2 1 C2 1.99 2 2.98 2 4 C4.64 4 7.28 4 10 4 C10 4.66 10 5.32 10 6 C8.54364629 6.22174933 7.08477044 6.42698698 5.625 6.625 C4.81289062 6.74101562 4.00078125 6.85703125 3.1640625 6.9765625 C2.44992188 6.98429688 1.73578125 6.99203125 1 7 C0.34 6.34 -0.32 5.68 -1 5 C-0.625 2.375 -0.625 2.375 0 0 Z " fill="#753E6C" transform="translate(210,192)"/>
<path d="M0 0 C0 0.66 0 1.32 0 2 C-0.495 2.474375 -0.99 2.94875 -1.5 3.4375 C-3.34626591 4.99969942 -3.34626591 4.99969942 -3 8 C-4.32 7.67 -5.64 7.34 -7 7 C-7 5.35 -7 3.7 -7 2 C-4.35261084 0.5393715 -3.10551666 0 0 0 Z " fill="#5B2258" transform="translate(171,302)"/>
<path d="M0 0 C1.98 0 3.96 0 6 0 C6.33 0.66 6.66 1.32 7 2 C5.02 2 3.04 2 1 2 C1.33 4.31 1.66 6.62 2 9 C1.01 9 0.02 9 -1 9 C-2.0326802 6.21176345 -2.04509293 5.1322726 -1.0625 2.25 C-0.711875 1.5075 -0.36125 0.765 0 0 Z " fill="#78446E" transform="translate(228,226)"/>
<path d="M0 0 C0.125 2.875 0.125 2.875 0 6 C-0.66 6.66 -1.32 7.32 -2 8 C-4.125 7.625 -4.125 7.625 -6 7 C-5.39816251 4.97954558 -4.72693904 2.97888961 -4 1 C-2 0 -2 0 0 0 Z " fill="#92688C" transform="translate(389,302)"/>
<path d="M0 0 C2.375 -0.125 2.375 -0.125 5 0 C7 2 7 2 7.125 5.625 C7.08375 6.73875 7.0425 7.8525 7 9 C6.01 8.67 5.02 8.34 4 8 C4 6.02 4 4.04 4 2 C2.68 1.67 1.36 1.34 0 1 C0 0.67 0 0.34 0 0 Z " fill="#58224F" transform="translate(325,298)"/>
<path d="M0 0 C0.99 0 1.98 0 3 0 C3.66 2.97 4.32 5.94 5 9 C3.68 8.34 2.36 7.68 1 7 C0.25 3.375 0.25 3.375 0 0 Z " fill="#592750" transform="translate(271,300)"/>
<path d="M0 0 C-5.29230769 4.92307692 -5.29230769 4.92307692 -8.875 5.3125 C-9.926875 5.1578125 -9.926875 5.1578125 -11 5 C-10.67 4.01 -10.34 3.02 -10 2 C-8.68 2 -7.36 2 -6 2 C-6 1.34 -6 0.68 -6 0 C-3.50907189 -1.24546405 -2.58919267 -0.7767578 0 0 Z " fill="#975F8D" transform="translate(201,238)"/>
<path d="M0 0 C-0.33 1.32 -0.66 2.64 -1 4 C-1.515625 3.814375 -2.03125 3.62875 -2.5625 3.4375 C-5.85908739 2.84580483 -8.72245735 3.432733 -12 4 C-12.33 3.34 -12.66 2.68 -13 2 C-8.46298506 0.54815522 -4.81938524 -0.23509196 0 0 Z " fill="#64235A" transform="translate(312,204)"/>
<path d="M0 0 C1.12894876 0.93274109 2.25300876 1.87140122 3.375 2.8125 C4.00148438 3.33457031 4.62796875 3.85664063 5.2734375 4.39453125 C7 6 7 6 9 9 C6 9 6 9 3.8125 7 C3.214375 6.34 2.61625 5.68 2 5 C1.01 5.495 1.01 5.495 0 6 C-0.38218767 4.34385343 -0.71395102 2.67542976 -1 1 C-0.67 0.67 -0.34 0.34 0 0 Z " fill="#F39CC0" transform="translate(291,166)"/>
<path d="M0 0 C0.66 0 1.32 0 2 0 C2 1.32 2 2.64 2 4 C-1.77222089 5.75163456 -4.666639 6.22490027 -8.8125 6.125 C-10.27623047 6.09792969 -10.27623047 6.09792969 -11.76953125 6.0703125 C-12.50558594 6.04710937 -13.24164063 6.02390625 -14 6 C-14 5.67 -14 5.34 -14 5 C-13.15695312 4.89042969 -12.31390625 4.78085938 -11.4453125 4.66796875 C-10.34960938 4.50941406 -9.25390625 4.35085937 -8.125 4.1875 C-7.03445313 4.03667969 -5.94390625 3.88585937 -4.8203125 3.73046875 C-1.68761154 3.25334259 -1.68761154 3.25334259 0 0 Z " fill="#E293B6" transform="translate(306,188)"/>
<path d="M0 0 C3.43132304 0.98037801 4.79850847 2.17562548 7.0625 4.875 C6.0725 5.37 6.0725 5.37 5.0625 5.875 C3.0536515 4.89289629 1.05462671 3.89059401 -0.9375 2.875 C-3.67322585 2.17592586 -3.67322585 2.17592586 -5.9375 1.875 C-2.9375 -0.125 -2.9375 -0.125 0 0 Z " fill="#722560" transform="translate(237.9375,152.125)"/>
<path d="M0 0 C0.66 0 1.32 0 2 0 C2 1.32 2 2.64 2 4 C2.66 4 3.32 4 4 4 C4.33 4.99 4.66 5.98 5 7 C3.35 7 1.7 7 0 7 C-0.66 5.68 -1.32 4.36 -2 3 C-1.34 2.01 -0.68 1.02 0 0 Z " fill="#5F2656" transform="translate(310,303)"/>
<path d="M0 0 C2.59487555 1.29743778 3.02269781 2.29362471 4 5 C3.625 7.75 3.625 7.75 3 10 C0.51280729 7.08025204 -0.58572305 4.83206182 -1 1 C-0.67 0.67 -0.34 0.34 0 0 Z " fill="#733067" transform="translate(276,252)"/>
<path d="M0 0 C4.81033104 2.54664585 8.32442148 4.99027798 12 9 C9.03 8.505 9.03 8.505 6 8 C6 7.01 6 6.02 6 5 C4.35 4.67 2.7 4.34 1 4 C0.67 2.68 0.34 1.36 0 0 Z " fill="#F09EC1" transform="translate(279,157)"/>
<path d="M0 0 C0 0.99 0 1.98 0 3 C-2.9063515 5.80255323 -3.78825048 6 -8 6 C-8 6.99 -8 7.98 -8 9 C-8.99 8.67 -9.98 8.34 -11 8 C-7.72291137 4.32966073 -4.28477792 2.30718811 0 0 Z " fill="#703562" transform="translate(213,155)"/>
<path d="M0 0 C0.99 0.33 1.98 0.66 3 1 C3.125 6.75 3.125 6.75 2 9 C1.01 9 0.02 9 -1 9 C-0.67 6.03 -0.34 3.06 0 0 Z " fill="#58224F" transform="translate(220,301)"/>
<path d="M0 0 C0.66 0 1.32 0 2 0 C1.01 3.96 0.02 7.92 -1 12 C-3 8 -3 8 -2.5390625 5.859375 C-2.23742187 5.16328125 -1.93578125 4.4671875 -1.625 3.75 C-1.32851562 3.04359375 -1.03203125 2.3371875 -0.7265625 1.609375 C-0.48679688 1.07828125 -0.24703125 0.5471875 0 0 Z " fill="#7D4373" transform="translate(209,218)"/>
<path d="M0 0 C0 0.66 0 1.32 0 2 C0.99 2.33 1.98 2.66 3 3 C0.21136993 4.39431504 -1.92078868 4.25660094 -5 4 C-5.66 3.01 -6.32 2.02 -7 1 C-4 0 -4 0 0 0 Z " fill="#835781" transform="translate(214,307)"/>
<path d="M0 0 C2 1 2 1 3.125 3.375 C4 6 4 6 4 9 C1.525 8.01 1.525 8.01 -1 7 C-0.67 4.69 -0.34 2.38 0 0 Z " fill="#6F486B" transform="translate(261,302)"/>
<path d="M0 0 C0.33 0 0.66 0 1 0 C1.33 2.64 1.66 5.28 2 8 C1.01 8.33 0.02 8.66 -1 9 C-1.99 8.34 -2.98 7.68 -4 7 C-3.34 6.01 -2.68 5.02 -2 4 C-1.34 4.33 -0.68 4.66 0 5 C0 3.35 0 1.7 0 0 Z " fill="#9F7C99" transform="translate(332,302)"/>
<path d="M0 0 C0.99 0.33 1.98 0.66 3 1 C3 2.98 3 4.96 3 7 C1.35 7 -0.3 7 -2 7 C-1.34 4.69 -0.68 2.38 0 0 Z " fill="#67315C" transform="translate(322,302)"/>
<path d="M0 0 C4 0 4 0 6.25 2 C7.11625 2.99 7.11625 2.99 8 4 C7.01 4.33 6.02 4.66 5 5 C4.34 4.67 3.68 4.34 3 4 C2.34 4.66 1.68 5.32 1 6 C0.34 4.35 -0.32 2.7 -1 1 C-0.67 0.67 -0.34 0.34 0 0 Z " fill="#AA90A8" transform="translate(306,298)"/>
<path d="M0 0 C1.98 0 3.96 0 6 0 C6.33 0.66 6.66 1.32 7 2 C6.67 2.66 6.34 3.32 6 4 C3.9375 4.625 3.9375 4.625 2 5 C1.34 3.35 0.68 1.7 0 0 Z " fill="#815978" transform="translate(180,294)"/>
<path d="M0 0 C2.79872437 2.52788007 4.45773019 4.20411134 5 8 C3.125 7.875 3.125 7.875 1 7 C-0.25 3.9375 -0.25 3.9375 -1 1 C-0.67 0.67 -0.34 0.34 0 0 Z " fill="#6B3160" transform="translate(282,265)"/>
<path d="M0 0 C0.66 0.33 1.32 0.66 2 1 C1.67 2.65 1.34 4.3 1 6 C-0.32 6.33 -1.64 6.66 -3 7 C-2.38722388 4.03824877 -1.74627478 2.61941217 0 0 Z " fill="#733869" transform="translate(186,180)"/>
<path d="M0 0 C0.33 0 0.66 0 1 0 C1.33 4.95 1.66 9.9 2 15 C0.68 15 -0.64 15 -2 15 C-2 14.34 -2 13.68 -2 13 C-1.34 13 -0.68 13 0 13 C0 8.71 0 4.42 0 0 Z " fill="#B4A1B1" transform="translate(159,301)"/>
<path d="M0 0 C2 1.8125 2 1.8125 4 4 C4 4.99 4 5.98 4 7 C1.03 6.505 1.03 6.505 -2 6 C-2 5.34 -2 4.68 -2 4 C-1.34 4 -0.68 4 0 4 C0 2.68 0 1.36 0 0 Z " fill="#673B61" transform="translate(290,304)"/>
<path d="M0 0 C1.32 1.32 2.64 2.64 4 4 C3.34 4 2.68 4 2 4 C1.67 5.65 1.34 7.3 1 9 C0.01 8.34 -0.98 7.68 -2 7 C-1.34 4.69 -0.68 2.38 0 0 Z " fill="#815F7F" transform="translate(190,299)"/>
<path d="M0 0 C2.31 0 4.62 0 7 0 C7.66 1.32 8.32 2.64 9 4 C7.68 4 6.36 4 5 4 C5 3.34 5 2.68 5 2 C3.35 1.67 1.7 1.34 0 1 C0 0.67 0 0.34 0 0 Z " fill="#62335C" transform="translate(379,298)"/>
<path d="M0 0 C0.99 0 1.98 0 3 0 C3 0.66 3 1.32 3 2 C3.66 2 4.32 2 5 2 C5 2.99 5 3.98 5 5 C3.35 5 1.7 5 0 5 C-0.5625 3.0625 -0.5625 3.0625 -1 1 C-0.67 0.67 -0.34 0.34 0 0 Z " fill="#8E6B88" transform="translate(341,298)"/>
<path d="M0 0 C3.4375 0.8125 3.4375 0.8125 7 2 C7.33 2.99 7.66 3.98 8 5 C9.32 5 10.64 5 12 5 C12 5.66 12 6.32 12 7 C7.39104317 5.68315519 3.85859765 3.84801255 0 1 C0 0.67 0 0.34 0 0 Z " fill="#D44D89" transform="translate(203,272)"/>
<path d="M0 0 C2.64 0 5.28 0 8 0 C6.09598862 1.90401138 4.66574314 2.93520439 1.953125 3.19921875 C-0.03233273 3.1886578 -2.0169914 3.09915043 -4 3 C-2.68 2.67 -1.36 2.34 0 2 C0 1.34 0 0.68 0 0 Z " fill="#E34A90" transform="translate(236,250)"/>
<path d="M0 0 C0.33 0 0.66 0 1 0 C1.33 3.96 1.66 7.92 2 12 C1.01 12 0.02 12 -1 12 C-0.67 8.04 -0.34 4.08 0 0 Z " fill="#BAA1B6" transform="translate(374,299)"/>
<path d="M0 0 C0.66 0 1.32 0 2 0 C2 2.97 2 5.94 2 9 C1.01 9.33 0.02 9.66 -1 10 C-0.67 6.7 -0.34 3.4 0 0 Z " fill="#5B2553" transform="translate(335,300)"/>
<path d="M0 0 C1.65 0 3.3 0 5 0 C4.01 0.495 4.01 0.495 3 1 C2.53348793 3.12576782 2.53348793 3.12576782 2.375 5.5625 C2.30023438 6.38878906 2.22546875 7.21507812 2.1484375 8.06640625 C2.09945312 8.70449219 2.05046875 9.34257812 2 10 C1.67 10 1.34 10 1 10 C0.67 6.7 0.34 3.4 0 0 Z " fill="#6E4063" transform="translate(138,298)"/>
<path d="M0 0 C0.33 1.32 0.66 2.64 1 4 C-0.75 5.5625 -0.75 5.5625 -3 7 C-5.25 6.6875 -5.25 6.6875 -7 6 C-5.68 5.67 -4.36 5.34 -3 5 C-3.33 4.01 -3.66 3.02 -4 2 C-3.01 2 -2.02 2 -1 2 C-0.67 1.34 -0.34 0.68 0 0 Z " fill="#A98AA7" transform="translate(308,310)"/>
<path d="M0 0 C0.33 0 0.66 0 1 0 C1 2.31 1 4.62 1 7 C-1.97 6.505 -1.97 6.505 -5 6 C-4.67 5.34 -4.34 4.68 -4 4 C-3.34 4 -2.68 4 -2 4 C-1.67 3.01 -1.34 2.02 -1 1 C-0.67 0.67 -0.34 0.34 0 0 Z " fill="#AF88A6" transform="translate(173,300)"/>
<path d="M0 0 C2.64465038 3.1254959 3.84414715 6.08788267 5 10 C2 9 2 9 0.8125 6.6875 C0 4 0 4 0 0 Z " fill="#D85A96" transform="translate(259,261)"/>
<path d="M0 0 C3.24732932 1.62366466 3.70155136 4.75387839 5 8 C3.68 8 2.36 8 1 8 C0 2.25 0 2.25 0 0 Z " fill="#6E3561" transform="translate(180,238)"/>
<path d="M0 0 C-1.04874998 2.62187494 -1.64931313 3.79371361 -4.125 5.25 C-4.74375 5.4975 -5.3625 5.745 -6 6 C-6.33 5.34 -6.66 4.68 -7 4 C-6.34 4 -5.68 4 -5 4 C-5 3.01 -5 2.02 -5 1 C-3 0 -3 0 0 0 Z " fill="#7F406A" transform="translate(207,231)"/>
<path d="M0 0 C1.9375 0.375 1.9375 0.375 4 1 C4.33 1.66 4.66 2.32 5 3 C2.69 3.33 0.38 3.66 -2 4 C-2.33 3.34 -2.66 2.68 -3 2 C-2.01 2 -1.02 2 0 2 C0 1.34 0 0.68 0 0 Z " fill="#7C4972" transform="translate(233,298)"/>
<path d="M0 0 C0.33 0 0.66 0 1 0 C1 1.65 1 3.3 1 5 C1.66 5 2.32 5 3 5 C3 5.66 3 6.32 3 7 C1.35 6.67 -0.3 6.34 -2 6 C-1.34 4.02 -0.68 2.04 0 0 Z " fill="#53264D" transform="translate(400,303)"/>
<path d="M0 0 C2.475 0.99 2.475 0.99 5 2 C5 2.99 5 3.98 5 5 C2.03 4.505 2.03 4.505 -1 4 C-0.67 2.68 -0.34 1.36 0 0 Z " fill="#886484" transform="translate(227,306)"/>
<path d="M0 0 C0.99 0 1.98 0 3 0 C3 2.31 3 4.62 3 7 C2.34 5.68 1.68 4.36 1 3 C0.34 4.32 -0.32 5.64 -1 7 C-1.04254356 5.00045254 -1.04080783 2.99958364 -1 1 C-0.67 0.67 -0.34 0.34 0 0 Z " fill="#CEBBC7" transform="translate(399,301)"/>
<path d="M0 0 C1.98 0 3.96 0 6 0 C6 0.99 6 1.98 6 3 C4.35 3.33 2.7 3.66 1 4 C0.67 2.68 0.34 1.36 0 0 Z " fill="#6C3F6C" transform="translate(200,294)"/>
<path d="M0 0 C0.99 0.33 1.98 0.66 3 1 C2.01 2.485 2.01 2.485 1 4 C0.34 4 -0.32 4 -1 4 C-1 4.66 -1 5.32 -1 6 C-1.66 6 -2.32 6 -3 6 C-2.42655063 3.13275314 -2.1385485 2.1385485 0 0 Z " fill="#8B5A85" transform="translate(290,266)"/>
<path d="M0 0 C0.66 0 1.32 0 2 0 C0.54744301 3.82946843 -1.42895561 5.12050295 -5 7 C-5 6.01 -5 5.02 -5 4 C-3.35 3.34 -1.7 2.68 0 2 C0 1.34 0 0.68 0 0 Z " fill="#8A597F" transform="translate(244,182)"/>
<path d="M0 0 C0.99 0.33 1.98 0.66 3 1 C1.35 2.65 -0.3 4.3 -2 6 C-2.99 5.34 -3.98 4.68 -5 4 C-4.34 4 -3.68 4 -3 4 C-3 3.34 -3 2.68 -3 2 C-2.01 1.34 -1.02 0.68 0 0 Z " fill="#61245A" transform="translate(249,177)"/>
<path d="M0 0 C0.99 0 1.98 0 3 0 C3 0.99 3 1.98 3 3 C3.66 3 4.32 3 5 3 C4.67 3.99 4.34 4.98 4 6 C3.01 5.67 2.02 5.34 1 5 C0.67 3.35 0.34 1.7 0 0 Z " fill="#5D2255" transform="translate(194,302)"/>
<path d="M0 0 C0.99 0 1.98 0 3 0 C2.67 2.97 2.34 5.94 2 9 C1.67 9 1.34 9 1 9 C0.67 6.03 0.34 3.06 0 0 Z " fill="#521E4D" transform="translate(252,298)"/>
<path d="M0 0 C0.99 0 1.98 0 3 0 C3.33 1.32 3.66 2.64 4 4 C2.68 4.33 1.36 4.66 0 5 C-0.33 4.01 -0.66 3.02 -1 2 C-0.67 1.34 -0.34 0.68 0 0 Z " fill="#8F728E" transform="translate(371,293)"/>
<path d="M0 0 C0.99 0 1.98 0 3 0 C3.33 1.32 3.66 2.64 4 4 C2.68 4.33 1.36 4.66 0 5 C-0.33 4.01 -0.66 3.02 -1 2 C-0.67 1.34 -0.34 0.68 0 0 Z " fill="#8B6983" transform="translate(335,293)"/>
<path d="M0 0 C2.375 0.25 2.375 0.25 5 1 C6.3125 3.0625 6.3125 3.0625 7 5 C4.11424181 4.60196439 3.17810487 4.20990931 1.25 1.9375 C0.8375 1.298125 0.425 0.65875 0 0 Z " fill="#733364" transform="translate(268,245)"/>
<path d="M0 0 C5.53846154 -0.36923077 5.53846154 -0.36923077 7.875 1.5 C8.24625 1.995 8.6175 2.49 9 3 C8.67 3.66 8.34 4.32 8 5 C5.36 3.68 2.72 2.36 0 1 C0 0.67 0 0.34 0 0 Z " fill="#814477" transform="translate(257,238)"/>
<path d="" fill="#FFFFFF" transform="translate(0,0)"/>
<path d="M0 0 C2 1 2 1 2 1 Z " fill="#FFFFFF" transform="translate(231,238)"/>
<path d="M0 0 C2 1 2 1 2 1 Z " fill="#FFFFFF" transform="translate(296,205)"/>
<path d="M0 0 C2 1 2 1 2 1 Z " fill="#FFFFFF" transform="translate(300,204)"/>
<path d="M0 0 C2 1 2 1 2 1 Z " fill="#FFFFFF" transform="translate(282,204)"/>
<path d="" fill="#FFFFFF" transform="translate(0,0)"/>
<path d="" fill="#FFFFFF" transform="translate(0,0)"/>
<path d="" fill="#FFFFFF" transform="translate(0,0)"/>
<path d="" fill="#FFFFFF" transform="translate(0,0)"/>
<path d="" fill="#FFFFFF" transform="translate(0,0)"/>
</svg>
